<svg xmlns="http://www.w3.org/2000/svg"  viewBox="0 0 80 80" width="16px" height="16px"><path fill="#8bb7f0" d="M8,65.5c-3.032,0-5.5-2.467-5.5-5.5V20c0-3.033,2.468-5.5,5.5-5.5h64c3.032,0,5.5,2.467,5.5,5.5v40 c0,3.033-2.468,5.5-5.5,5.5H8z"/><path fill="#4e7ab5" d="M72,15c2.757,0,5,2.243,5,5v40c0,2.757-2.243,5-5,5H8c-2.757,0-5-2.243-5-5V20c0-2.757,2.243-5,5-5 H72 M72,14H8c-3.314,0-6,2.686-6,6v40c0,3.314,2.686,6,6,6h64c3.314,0,6-2.686,6-6V20C78,16.686,75.314,14,72,14L72,14z"/><path fill="#c74343" d="M34,40c0-5.324,2.325-10.094,6-13.39C36.814,23.753,32.617,22,28,22c-9.941,0-18,8.059-18,18 c0,9.941,8.059,18,18,18c4.617,0,8.814-1.753,12-4.61C36.325,50.094,34,45.324,34,40z"/><path fill="#ffeea3" d="M52,22c-4.617,0-8.814,1.753-12,4.61c3.675,3.296,6,8.065,6,13.39c0,5.324-2.325,10.094-6,13.39 C43.186,56.247,47.383,58,52,58c9.941,0,18-8.059,18-18C70,30.059,61.941,22,52,22z"/><g><path fill="#ffc49c" d="M46,40c0-5.324-2.325-10.094-6-13.39c-3.675,3.296-6,8.065-6,13.39c0,5.324,2.325,10.094,6,13.39 C43.675,50.094,46,45.324,46,40z"/></g></svg>